HIERARCHY
ROOT Hips
{
  OFFSET 42.9393 100.051 0.431031
  CHANNELS 6 Xposition Yposition Zposition Zrotation Xrotation Yrotation
  JOINT spine
  {
    OFFSET 0 8.81705 0.507024
    CHANNELS 3 Zrotation Xrotation Yrotation
    JOINT spine1
    {
      OFFSET 0 10.7766 0
      CHANNELS 3 Zrotation Xrotation Yrotation
      JOINT spine2
      {
        OFFSET 0 10.3259 0
        CHANNELS 3 Zrotation Xrotation Yrotation
        JOINT Neck
        {
          OFFSET 0 26.511 1.26395
          CHANNELS 3 Zrotation Xrotation Yrotation
          JOINT Head
          {
            OFFSET 0 8.00966 0
            CHANNELS 3 Zrotation Xrotation Yrotation
            End Site
            {
              OFFSET 0 19.3879 -6.39386
            }
          }
        }
        JOINT RightShoulder
        {
          OFFSET -4.34795 11.1512 -0.605422
          CHANNELS 3 Zrotation Xrotation Yrotation
          JOINT RightArm
          {
            OFFSET 0 14.6258 0
            CHANNELS 3 Zrotation Xrotation Yrotation
            JOINT RightArmRoll
            {
              OFFSET 0 7.3834 0
              CHANNELS 3 Zrotation Xrotation Yrotation
              JOINT RightForeArm
              {
                OFFSET 0 21.5052 0
                CHANNELS 3 Zrotation Xrotation Yrotation
                JOINT RightForeArmRoll
                {
                  OFFSET 0 8.28532 0
                  CHANNELS 3 Zrotation Xrotation Yrotation
                  JOINT RightHand
                  {
                    OFFSET 0 16.6268 0
                    CHANNELS 3 Zrotation Xrotation Yrotation
                    End Site
                    {
                      OFFSET 0 0 0
                    }
                  }
                }
              }
            }
          }
        }
        JOINT LeftShoulder
        {
          OFFSET 4.34795 11.1512 -0.605422
          CHANNELS 3 Zrotation Xrotation Yrotation
          JOINT LeftArm
          {
            OFFSET 0 14.6258 0
            CHANNELS 3 Zrotation Xrotation Yrotation
            JOINT LeftArmRoll
            {
              OFFSET 0 7.38339 0
              CHANNELS 3 Zrotation Xrotation Yrotation
              JOINT LeftForeArm
              {
                OFFSET 0 21.5052 0
                CHANNELS 3 Zrotation Xrotation Yrotation
                JOINT LeftForeArmRoll
                {
                  OFFSET 0 8.28532 0
                  CHANNELS 3 Zrotation Xrotation Yrotation
                  JOINT LeftHand
                  {
                    OFFSET 0 16.6268 0
                    CHANNELS 3 Zrotation Xrotation Yrotation
                    End Site
                    {
                      OFFSET 0 0 0
                    }
                  }
                }
              }
            }
          }
        }
      }
    }
  }
  JOINT RightUpLeg
  {
    OFFSET -7.8151 -1.43309 -1.20217
    CHANNELS 3 Zrotation Xrotation Yrotation
    JOINT RightUpLegRoll
    {
      OFFSET 0 19.4959 0
      CHANNELS 3 Zrotation Xrotation Yrotation
      JOINT RightLeg
      {
        OFFSET 0 -24.1427 0
        CHANNELS 3 Zrotation Xrotation Yrotation
        JOINT RightLegRoll
        {
          OFFSET 0 24.2217 0
          CHANNELS 3 Zrotation Xrotation Yrotation
          JOINT RightFoot
          {
            OFFSET 0 20.1605 0
            CHANNELS 3 Zrotation Xrotation Yrotation
            JOINT RightToeBase
            {
              OFFSET 0 16.8532 0
              CHANNELS 3 Zrotation Xrotation Yrotation
              End Site
              {
                OFFSET 0.00714342 8.16186 -0.940781
              }
            }
          }
        }
      }
    }
  }
  JOINT LeftUpLeg
  {
    OFFSET 7.8151 -1.43309 -1.20217
    CHANNELS 3 Zrotation Xrotation Yrotation
    JOINT LeftUpLegRoll
    {
      OFFSET 0 19.496 0
      CHANNELS 3 Zrotation Xrotation Yrotation
      JOINT LeftLeg
      {
        OFFSET 0 24.1426 0
        CHANNELS 3 Zrotation Xrotation Yrotation
        JOINT LeftLegRoll
        {
          OFFSET 0 24.4456 0
          CHANNELS 3 Zrotation Xrotation Yrotation
          JOINT LeftFoot
          {
            OFFSET 0 19.9366 0
            CHANNELS 3 Zrotation Xrotation Yrotation
            JOINT LeftToeBase
            {
              OFFSET 0 16.8532 0
              CHANNELS 3 Zrotation Xrotation Yrotation
              End Site
              {
                OFFSET -0.0320138 8.16187 -0.94078
              }
            }
          }
        }
      }
    }
  }
}
MOTION
Frames: 10
Frame Time: 0.00208333
50.2642 114.582 11.1822 0.23647 10.5853 4.80072 0.208934 -2.20583 0.0998772 0.420093 -0.408556 0.180643 0.418022 1.23649 0.173648 -19.7139 -17.678 -5.7405 9.48514 22.4765 -6.36325 37.116 -11.1363 -7.17542 118.183 -28.6089 -53.6482 3.01954e-006 -5.86446e-007 -1.0238e-006 -48.0565 78.6677 42.5132 -7.73829e-006 -1.16917e-007 -3.01199 8.02888 -4.95148 0.697682 -48.2146 -9.96624 6.14849 -109.03 -12.6256 40.1973 -2.4616e-006 1.16761e-006 -4.69172e-007 -11.6167 69.975 9.06014 2.02417e-006 -7.12256e-007 3.00313 -8.02893 -4.95146 -0.697675 171.965 20.3735 7.02428 180 7.01507e-015 178.762 174.081 31.4379 -179.685 3.27834e-006 -3.51779e-006 0.519834 -17.3501 66.791 18.6029 8.13649 25.2326 -3.48773 -175.661 21.559 -1.34915 4.54188e-006 -4.6773e-006 -0.893363 -5.75515 -24.0794 -0.528617 3.64508e-006 -2.01473e-007 -0.304606 19.4183 69.0236 -20.4077 -8.13649 25.2327 3.48774 
50.2461 114.56 11.1353 0.204545 10.6082 4.82903 0.210507 -2.18852 0.0954867 0.423097 -0.373945 0.171654 0.421139 1.2711 0.164608 -19.7806 -17.7678 -5.7747 9.5665 22.4221 -6.38117 37.1199 -11.162 -7.19978 118.084 -28.6982 -53.888 3.01954e-006 -5.86446e-007 -1.0238e-006 -49.1651 78.6417 43.4504 -7.73829e-006 -1.16917e-007 -3.01199 8.02888 -4.95148 0.697682 -48.301 -9.93852 6.12768 -108.81 -12.7404 40.2623 -2.4616e-006 1.16761e-006 -4.69172e-007 -11.3808 70.1633 8.94285 2.02417e-006 -7.12256e-007 3.00313 -8.02893 -4.95146 -0.697675 172 20.4888 7.01813 180 7.01508e-015 178.766 174.047 31.5621 -179.668 3.27834e-006 -3.51779e-006 0.520071 -17.3728 66.8223 18.6255 8.13649 25.2326 -3.48773 -175.606 21.7177 -1.43136 4.54188e-006 -4.6773e-006 -0.893398 -5.79158 -24.2646 -0.541847 3.64508e-006 -2.01473e-007 -0.307477 19.3882 68.9903 -20.3775 -8.13649 25.2327 3.48774 
50.2034 114.495 11.1059 0.173897 10.6337 4.8554 0.211956 -2.17171 0.0916817 0.425877 -0.34033 0.163849 0.424017 1.30472 0.156757 -19.8455 -17.8524 -5.80862 9.64508 22.3664 -6.39937 37.1207 -11.1888 -7.22514 117.988 -28.7822 -54.1221 3.01954e-006 -5.86446e-007 -1.0238e-006 -50.2297 78.6135 44.3497 -7.73829e-006 -1.16917e-007 -3.01199 8.02888 -4.95148 0.697682 -48.3857 -9.91116 6.10719 -108.596 -12.8505 40.3218 -2.4616e-006 1.16761e-006 -4.69172e-007 -11.1533 70.3432 8.82901 2.02417e-006 -7.12256e-007 3.00313 -8.02893 -4.95146 -0.697675 172.035 20.6033 7.00817 180 7.0151e-015 178.771 174.017 31.672 -179.654 3.27834e-006 -3.51779e-006 0.520117 -17.3948 66.8524 18.6475 8.13649 25.2326 -3.48773 -175.553 21.8773 -1.51343 4.54188e-006 -4.6773e-006 -0.893477 -5.82906 -24.4462 -0.555272 3.64508e-006 -2.01473e-007 -0.310361 19.3591 68.9579 -20.3482 -8.13649 25.2327 3.48774 
50.1792 114.473 11.0713 0.144763 10.6626 4.87949 0.213312 -2.15558 0.0885931 0.428496 -0.308098 0.157488 0.426717 1.33695 0.150352 -19.9088 -17.9326 -5.84251 9.71995 22.3108 -6.41806 37.1167 -11.2171 -7.25197 117.899 -28.8607 -54.3503 3.01954e-006 -5.86446e-007 -1.0238e-006 -51.2472 78.584 45.2084 -7.73829e-006 -1.16917e-007 -3.01199 8.02888 -4.95148 0.697682 -48.4684 -9.88442 6.08725 -108.389 -12.9557 40.3756 -2.4616e-006 1.16761e-006 -4.69172e-007 -10.936 70.5141 8.71984 2.02417e-006 -7.12256e-007 3.00313 -8.02893 -4.95146 -0.697675 172.069 20.7179 6.99444 180 7.01511e-015 178.776 173.991 31.7666 -179.641 3.27834e-006 -3.51779e-006 0.519994 -17.4157 66.881 18.6684 8.13649 25.2326 -3.48773 -175.5 22.0387 -1.5954 4.54188e-006 -4.6773e-006 -0.893601 -5.86797 -24.6244 -0.568952 3.64508e-006 -2.01473e-007 -0.313258 19.3314 68.9271 -20.3205 -8.13649 25.2327 3.48774 
50.1365 114.408 11.032 0.117382 10.6957 4.90093 0.214606 -2.14035 0.0863517 0.431016 -0.277635 0.152832 0.429297 1.36741 0.145653 -19.9706 -18.009 -5.8766 9.7902 22.2565 -6.43745 37.1062 -11.2475 -7.28075 117.817 -28.9338 -54.5721 3.01954e-006 -5.86446e-007 -1.0238e-006 -52.2145 78.554 46.0245 -7.73829e-006 -1.16917e-007 -3.01199 8.02888 -4.95148 0.697682 -48.5488 -9.85855 6.06805 -108.189 -13.0556 40.4236 -2.4616e-006 1.16761e-006 -4.69172e-007 -10.7306 70.6758 8.61659 2.02417e-006 -7.12256e-007 3.00313 -8.02893 -4.95146 -0.697675 172.103 20.8333 6.97698 180 7.01512e-015 178.781 173.97 31.8452 -179.63 3.27834e-006 -3.51779e-006 0.519726 -17.4354 66.9079 18.6883 8.13649 25.2326 -3.48773 -175.448 22.2029 -1.67733 4.54188e-006 -4.6773e-006 -0.893768 -5.90871 -24.7993 -0.582947 3.64508e-006 -2.01473e-007 -0.31617 19.3053 68.8983 -20.2945 -8.13649 25.2327 3.48774 
50.1762 114.373 10.9809 0.0919909 10.7338 4.91939 0.215867 -2.12619 0.0850884 0.4335 -0.249327 0.150139 0.431818 1.39572 0.142919 -20.0314 -18.0824 -5.91116 9.85491 22.2047 -6.45773 37.0875 -11.2804 -7.31193 117.743 -29.0012 -54.7871 3.01954e-006 -5.86446e-007 -1.0238e-006 -53.129 78.5243 46.7959 -7.73829e-006 -1.16917e-007 -3.01199 8.02888 -4.95148 0.697682 -48.6267 -9.83382 6.0498 -107.999 -13.1498 40.4658 -2.4616e-006 1.16761e-006 -4.69172e-007 -10.539 70.8276 8.52058 2.02417e-006 -7.12256e-007 3.00313 -8.02893 -4.95146 -0.697675 172.137 20.9502 6.95583 180 7.01513e-015 178.786 173.954 31.9072 -179.622 3.27834e-006 -3.51779e-006 0.519336 -17.4537 66.9328 18.7067 8.13649 25.2326 -3.48773 -175.398 22.3706 -1.75924 4.54188e-006 -4.6773e-006 -0.893978 -5.95168 -24.9711 -0.59732 3.64508e-006 -2.01473e-007 -0.319098 19.2814 68.8718 -20.2708 -8.13649 25.2327 3.48774 
50.1172 114.283 10.9475 0.0685157 10.7757 4.9356 0.217003 -2.11267 0.084857 0.435762 -0.222288 0.149523 0.434091 1.42276 0.142266 -20.0911 -18.1505 -5.94662 9.91567 22.1511 -6.47938 37.0625 -11.3165 -7.34608 117.677 -29.0642 -54.9952 3.01954e-006 -5.86446e-007 -1.0238e-006 -53.9918 78.4943 47.5235 -7.73829e-006 -1.16917e-007 -3.01199 8.02888 -4.95148 0.697682 -48.702 -9.80906 6.03163 -107.817 -13.2382 40.5017 -2.4616e-006 1.16761e-006 -4.69172e-007 -10.3598 70.9691 8.43051 2.02417e-006 -7.12256e-007 3.00313 -8.02893 -4.95146 -0.697675 172.17 21.0659 6.93008 180 7.01515e-015 178.791 173.943 31.9497 -179.616 3.27834e-006 -3.51779e-006 0.518725 -17.4707 66.956 18.724 8.13649 25.2326 -3.48773 -175.349 22.5406 -1.84141 4.54188e-006 -4.6773e-006 -0.894268 -5.9966 -25.1399 -0.61212 3.64508e-006 -2.01473e-007 -0.322066 19.2589 68.847 -20.2486 -8.13649 25.2327 3.48774 
50.1448 114.251 10.9081 0.0466261 10.8193 4.95052 0.21791 -2.09924 0.0855455 0.437591 -0.195424 0.150768 0.435909 1.44962 0.143481 -20.1495 -18.211 -5.98301 9.97471 22.0913 -6.50245 37.0348 -11.3554 -7.38304 117.615 -29.1237 -55.1964 3.01954e-006 -5.86446e-007 -1.0238e-006 -54.8074 78.4631 48.2106 -7.73829e-006 -1.16917e-007 -3.01199 8.02888 -4.95148 0.697682 -48.7751 -9.78313 6.01266 -107.642 -13.3212 40.5307 -2.4616e-006 1.16761e-006 -4.69172e-007 -10.19 71.1006 8.34423 2.02417e-006 -7.12256e-007 3.00313 -8.02893 -4.95146 -0.697675 172.204 21.1775 6.89897 180 7.01516e-015 178.796 173.938 31.9717 -179.613 3.27834e-006 -3.51779e-006 0.517794 -17.4869 66.978 18.7406 8.13649 25.2326 -3.48773 -175.302 22.7109 -1.92397 4.54188e-006 -4.6773e-006 -0.894664 -6.04279 -25.3056 -0.627316 3.64508e-006 -2.01473e-007 -0.325092 19.237 68.8228 -20.2271 -8.13649 25.2327 3.48774 
50.1416 114.169 10.8613 0.0261788 10.8648 4.96412 0.218602 -2.08594 0.0870365 0.439009 -0.168807 0.153636 0.437296 1.47624 0.146327 -20.2064 -18.2643 -6.01995 10.0321 22.0259 -6.52663 37.005 -11.3966 -7.42227 117.558 -29.1796 -55.3911 3.01954e-006 -5.86446e-007 -1.0238e-006 -55.5781 78.431 48.8591 -7.73829e-006 -1.16917e-007 -3.01199 8.02888 -4.95148 0.697682 -48.8462 -9.75629 5.9931 -107.474 -13.3991 40.5532 -2.4616e-006 1.16761e-006 -4.69172e-007 -10.0297 71.2227 8.26184 2.02417e-006 -7.12256e-007 3.00313 -8.02893 -4.95146 -0.697675 172.239 21.2856 6.86281 180 7.01517e-015 178.801 173.937 31.9749 -179.611 3.27834e-006 -3.51779e-006 0.516565 -17.5024 66.9989 18.7564 8.13649 25.2326 -3.48773 -175.255 22.8813 -2.00679 4.54188e-006 -4.6773e-006 -0.895152 -6.09008 -25.4679 -0.642842 3.64508e-006 -2.01473e-007 -0.328165 19.2156 68.7993 -20.2061 -8.13649 25.2327 3.48774 
50.1422 114.126 10.8308 0.00703159 10.9119 4.97635 0.219091 -2.07279 0.0892125 0.440039 -0.142507 0.157893 0.438279 1.50254 0.150568 -20.2616 -18.3106 -6.05709 10.0877 21.9559 -6.55157 36.9733 -11.4395 -7.4632 117.505 -29.2318 -55.5796 3.01954e-006 -5.86446e-007 -1.0238e-006 -56.3062 78.3982 49.471 -7.73829e-006 -1.16917e-007 -3.01199 8.02888 -4.95148 0.697682 -48.9155 -9.72882 5.97313 -107.312 -13.4723 40.5693 -2.4616e-006 1.16761e-006 -4.69172e-007 -9.87842 71.3359 8.18337 2.02417e-006 -7.12256e-007 3.00313 -8.02893 -4.95146 -0.697675 172.275 21.3908 6.82193 180 7.01519e-015 178.806 173.942 31.9609 -179.612 3.27834e-006 -3.51779e-006 0.515061 -17.5172 67.0189 18.7716 8.13649 25.2326 -3.48773 -175.21 23.0518 -2.08975 4.54188e-006 -4.6773e-006 -0.895719 -6.13828 -25.6268 -0.658634 3.64508e-006 -2.01473e-007 -0.331276 19.1947 68.7763 -20.1858 -8.13649 25.2327 3.48774 
